<?xml version="1.0" encoding="iso-8859-1"?>
<!-- Generator: Adobe Illustrator 19.0.0, SVG Export Plug-In . SVG Version: 6.00 Build 0)  -->
<svg version="1.1" id="Capa_1" xmlns="http://www.w3.org/2000/svg" xmlns:xlink="http://www.w3.org/1999/xlink" x="0px" y="0px"
	 viewBox="0 0 480 480" style="enable-background:new 0 0 480 480;" xml:space="preserve">
<g>
	<g>
		<g>
			<path d="M240,416c66.274,0,120-53.726,120-120c-0.075-66.243-53.757-119.925-120-120c-66.274,0-120,53.726-120,120
				S173.726,416,240,416z M240,192c57.438,0,104,46.562,104,104c-0.066,57.41-46.59,103.934-104,104c-57.438,0-104-46.562-104-104
				S182.562,192,240,192z"/>
			<path d="M240,384c48.601,0,88-39.399,88-88c-0.057-48.577-39.423-87.943-88-88c-48.601,0-88,39.399-88,88
				C152,344.601,191.399,384,240,384z M239.948,224c36.679-0.013,67.505,27.548,71.58,64H288v16h23.528
				c-4.111,36.412-34.885,63.947-71.528,64c-39.764,0.014-72.012-32.209-72.026-71.974C167.959,256.262,200.183,224.014,239.948,224
				z"/>
			<path d="M440,0H40c-4.418,0-8,3.582-8,8v464c0,4.418,3.582,8,8,8h400c4.418,0,8-3.582,8-8V8C448,3.582,444.418,0,440,0z M432,464
				H48V112h384V464z M432,96H48V16h384V96z"/>
			<path d="M88,88c17.673,0,32-14.327,32-32s-14.327-32-32-32S56,38.327,56,56S70.327,88,88,88z M88,40c8.837,0,16,7.163,16,16
				s-7.163,16-16,16s-16-7.163-16-16S79.163,40,88,40z"/>
			<path d="M160,88c17.673,0,32-14.327,32-32s-14.327-32-32-32s-32,14.327-32,32S142.327,88,160,88z M160,40c8.837,0,16,7.163,16,16
				s-7.163,16-16,16s-16-7.163-16-16S151.163,40,160,40z"/>
			<path d="M232,88c17.673,0,32-14.327,32-32s-14.327-32-32-32c-17.673,0-32,14.327-32,32S214.327,88,232,88z M232,40
				c8.837,0,16,7.163,16,16s-7.163,16-16,16s-16-7.163-16-16S223.163,40,232,40z"/>
			<path d="M392,88c17.673,0,32-14.327,32-32s-14.327-32-32-32c-17.673,0-32,14.327-32,32S374.327,88,392,88z M392,40
				c8.837,0,16,7.163,16,16s-7.163,16-16,16s-16-7.163-16-16S383.163,40,392,40z"/>
			<path d="M64,456h48c4.418,0,8-3.582,8-8v-32c0-4.418-3.582-8-8-8H64c-4.418,0-8,3.582-8,8v32C56,452.418,59.582,456,64,456z
				 M72,424h32v16H72V424z"/>
		</g>
	</g>
</g>
<g>
</g>
<g>
</g>
<g>
</g>
<g>
</g>
<g>
</g>
<g>
</g>
<g>
</g>
<g>
</g>
<g>
</g>
<g>
</g>
<g>
</g>
<g>
</g>
<g>
</g>
<g>
</g>
<g>
</g>
</svg>
